<svg width="560" height="260" viewBox="0 0 560 260" xmlns="http://www.w3.org/2000/svg" font-family="'DM Sans', sans-serif">
  <style>
    @keyframes spin { from { transform: rotate(0deg); } to { transform: rotate(360deg); } }
    .vinyl-group { transform-origin: 130px 130px; animation: spin 4s linear infinite; }
    .vinyl-paused { animation-play-state: paused; }
    @keyframes eq { 0% { transform: scaleY(0.25); } 100% { transform: scaleY(1); } }
    .bar { animation: eq 0.9s ease-in-out infinite alternate; }
  </style>
  <defs>
    <clipPath id="art-clip">
      <circle cx="102" cy="102" r="83.64" />
    </clipPath>
    <linearGradient id="armGradient" x1="0" y1="0" x2="0" y2="1">
      <stop offset="0%" stop-color="#d8d8d8" />
      <stop offset="100%" stop-color="#9a9a9a" />
    </linearGradient>
  </defs>

  <rect x="0.5" y="0.5" width="559" height="259" rx="16" fill="#121212" stroke="transparent" />

  <g class="vinyl-group " transform="translate(28, 28)">
    <circle cx="102" cy="102" r="102" fill="#111" />
    <circle cx="102" cy="102" r="6" fill="none" stroke="rgba(255,255,255,0.06)" stroke-width="1" />
    <circle cx="102" cy="102" r="10" fill="none" stroke="rgba(255,255,255,0.06)" stroke-width="1" />
    <circle cx="102" cy="102" r="14" fill="none" stroke="rgba(255,255,255,0.06)" stroke-width="1" />
    <circle cx="102" cy="102" r="18" fill="none" stroke="rgba(255,255,255,0.06)" stroke-width="1" />
    <circle cx="102" cy="102" r="22" fill="none" stroke="rgba(255,255,255,0.06)" stroke-width="1" />
    <circle cx="102" cy="102" r="26" fill="none" stroke="rgba(255,255,255,0.06)" stroke-width="1" />
    <circle cx="102" cy="102" r="30" fill="none" stroke="rgba(255,255,255,0.06)" stroke-width="1" />
    <circle cx="102" cy="102" r="34" fill="none" stroke="rgba(255,255,255,0.06)" stroke-width="1" />
    <circle cx="102" cy="102" r="38" fill="none" stroke="rgba(255,255,255,0.06)" stroke-width="1" />
    <circle cx="102" cy="102" r="42" fill="none" stroke="rgba(255,255,255,0.06)" stroke-width="1" />
    <circle cx="102" cy="102" r="46" fill="none" stroke="rgba(255,255,255,0.06)" stroke-width="1" />
    <circle cx="102" cy="102" r="50" fill="none" stroke="rgba(255,255,255,0.06)" stroke-width="1" />
    <circle cx="102" cy="102" r="54" fill="none" stroke="rgba(255,255,255,0.06)" stroke-width="1" />
    <circle cx="102" cy="102" r="58" fill="none" stroke="rgba(255,255,255,0.06)" stroke-width="1" />
    <circle cx="102" cy="102" r="62" fill="none" stroke="rgba(255,255,255,0.06)" stroke-width="1" />
    <circle cx="102" cy="102" r="66" fill="none" stroke="rgba(255,255,255,0.06)" stroke-width="1" />
    <circle cx="102" cy="102" r="70" fill="none" stroke="rgba(255,255,255,0.06)" stroke-width="1" />
    <circle cx="102" cy="102" r="74" fill="none" stroke="rgba(255,255,255,0.06)" stroke-width="1" />
    <circle cx="102" cy="102" r="78" fill="none" stroke="rgba(255,255,255,0.06)" stroke-width="1" />
    <circle cx="102" cy="102" r="82" fill="none" stroke="rgba(255,255,255,0.06)" stroke-width="1" />
    <circle cx="102" cy="102" r="86" fill="none" stroke="rgba(255,255,255,0.06)" stroke-width="1" />
    <circle cx="102" cy="102" r="90" fill="none" stroke="rgba(255,255,255,0.06)" stroke-width="1" />
    <circle cx="102" cy="102" r="94" fill="none" stroke="rgba(255,255,255,0.06)" stroke-width="1" />
    <circle cx="102" cy="102" r="98" fill="none" stroke="rgba(255,255,255,0.06)" stroke-width="1" />
    <circle cx="102" cy="102" r="102" fill="url(#sheen)" />
    
    <circle cx="102" cy="102" r="27.540000000000003" fill="#f3ead7" stroke="rgba(0,0,0,0.3)" />
  </g>
  <defs>
    <radialGradient id="sheen" cx="35%" cy="30%" r="75%">
      <stop offset="0%" stop-color="rgba(255,255,255,0.10)" />
      <stop offset="45%" stop-color="rgba(255,255,255,0)" />
      <stop offset="100%" stop-color="rgba(255,255,255,0)" />
    </radialGradient>
  </defs>
  <circle cx="130" cy="130" r="5" fill="#121212" stroke="rgba(255,255,255,0.25)" stroke-width="2" />

  <circle cx="284" cy="52" r="10" fill="#2a2a2a" />
  <g transform="rotate(24 284 52)">
    <rect x="282" y="50" width="4" height="110" rx="2" fill="url(#armGradient)" />
    <rect x="278" y="156" width="12" height="20" rx="3" fill="#c9c9c9" />
  </g>

  <g transform="translate(306, 76.8) scale(0.8333333333333334)">
    <circle cx="12" cy="12" r="12" fill="#1DB954" />
    <path d="M17.9 10.9C14.7 9 9.35 8.8 6.3 9.75c-.5.15-1-.15-1.15-.6-.15-.5.15-1 .6-1.15 3.55-1.05 9.4-.85 13.1 1.35.45.25.6.85.35 1.3-.25.35-.85.5-1.3.25zm-.1 2.8c-.25.35-.7.5-1.05.25-2.7-1.65-6.8-2.15-9.95-1.15-.4.1-.85-.1-.95-.5-.1-.4.1-.85.5-.95 3.65-1.1 8.15-.55 11.25 1.35.3.15.45.65.2 1zm-1.2 2.75c-.2.3-.55.4-.85.2-2.35-1.45-5.3-1.75-8.8-.95-.35.1-.65-.15-.75-.45-.1-.35.15-.65.45-.75 3.8-.85 7.1-.5 9.7 1.1.35.15.4.55.25.85z" fill="#121212" />
  </g>
  <text x="334" y="86.8" dominant-baseline="middle" font-size="14" font-weight="700" letter-spacing="0.02em" fill="#1DB954">Now playing on</text>

  <text x="306" y="118" dominant-baseline="middle" font-size="22" font-weight="700" fill="#ffffff">DO IT AGAIN (fea…</text>
  <text x="306" y="148.2" dominant-baseline="middle" font-size="15" font-weight="500" fill="rgba(255,255,255,0.6)">NLE Choppa</text>

  <rect class="bar" x="306" y="167.2" width="3" height="14" rx="1.5" fill="#1DB954" style="animation-delay:0.00s; transform-origin: 307.5px 181.2px;" />
    <rect class="bar" x="314" y="167.2" width="3" height="14" rx="1.5" fill="#1DB954" style="animation-delay:0.18s; transform-origin: 315.5px 181.2px;" />
    <rect class="bar" x="322" y="167.2" width="3" height="14" rx="1.5" fill="#1DB954" style="animation-delay:0.36s; transform-origin: 323.5px 181.2px;" />
    <rect class="bar" x="330" y="167.2" width="3" height="14" rx="1.5" fill="#1DB954" style="animation-delay:0.54s; transform-origin: 331.5px 181.2px;" />
</svg>